<svg xmlns="http://www.w3.org/2000/svg" viewBox="0 0 512 512" role="img" aria-label="Hermes globe caduceus mask icon">
  <g fill="#000000" stroke="#000000" stroke-linecap="round" stroke-linejoin="round">
    <g fill="none" stroke-width="13">
      <ellipse cx="256" cy="272" rx="170" ry="176" />
      <path d="M118 244H394" />
      <path d="M168 107C203 131 229 145 256 145C283 145 309 131 344 107" />
      <path d="M256 98V136" />
      <path d="M144 205C135 252 139 321 162 387" />
      <path d="M368 205C377 252 373 321 350 387" />
      <path d="M132 339C187 311 325 311 380 339" />
      <path d="M160 385C205 367 307 367 352 385" />
    </g>

    <g>
      <path d="M93 168C127 166 173 149 211 120C226 109 242 109 249 119C258 132 252 150 236 160C201 183 144 192 96 184C77 181 75 169 93 168Z" />
      <path d="M148 186C178 171 203 152 221 133C227 127 237 127 241 134C245 141 242 149 233 156C214 173 188 190 159 200C146 204 139 192 148 186Z" />
      <path d="M168 204C194 189 216 171 230 153C235 147 243 147 247 153C250 159 247 166 239 174C223 190 201 208 177 220C164 225 157 212 168 204Z" />
      <path d="M189 222C209 209 226 194 238 179C243 173 250 174 253 180C255 186 252 193 245 201C232 215 214 229 195 239C184 245 177 232 189 222Z" />
    </g>

    <g transform="translate(512 0) scale(-1 1)">
      <path d="M93 168C127 166 173 149 211 120C226 109 242 109 249 119C258 132 252 150 236 160C201 183 144 192 96 184C77 181 75 169 93 168Z" />
      <path d="M148 186C178 171 203 152 221 133C227 127 237 127 241 134C245 141 242 149 233 156C214 173 188 190 159 200C146 204 139 192 148 186Z" />
      <path d="M168 204C194 189 216 171 230 153C235 147 243 147 247 153C250 159 247 166 239 174C223 190 201 208 177 220C164 225 157 212 168 204Z" />
      <path d="M189 222C209 209 226 194 238 179C243 173 250 174 253 180C255 186 252 193 245 201C232 215 214 229 195 239C184 245 177 232 189 222Z" />
    </g>

    <circle cx="256" cy="108" r="24" />
    <rect x="241" y="130" width="30" height="12" rx="6" />
    <rect x="248" y="142" width="16" height="234" rx="8" />
    <path d="M256 376L270 392L256 468L242 392Z" />

    <g fill="none" stroke-width="20">
      <path d="M255 156V420" />
      <path d="M223 206C193 205 175 231 192 251C208 270 229 278 245 294C263 311 259 336 234 350C211 364 209 392 230 408C250 423 251 443 240 460" />
      <path d="M289 206C319 205 337 231 320 251C304 270 283 278 267 294C249 311 253 336 278 350C301 364 303 392 282 408C262 423 261 443 272 460" />
    </g>

    <g>
      <path d="M216 199C208 188 190 188 183 198C178 205 183 212 195 212C205 212 214 208 219 202C220 201 219 200 216 199Z" />
      <path d="M296 199C304 188 322 188 329 198C334 205 329 212 317 212C307 212 298 208 293 202C292 201 293 200 296 199Z" />
    </g>
  </g>
</svg>